<svg width="176" height="25" fill="none" xmlns="http://www.w3.org/2000/svg"><g clip-path="url(#clip0_503_977)"><path fill-rule="evenodd" clip-rule="evenodd" d="M33.915 12.647c0 4.118-2.39 6.765-5.677 6.765-3.287 0-5.677-2.647-5.677-6.765V0h-5.379v12.647c0 4.118-2.39 6.765-5.677 6.765-3.287 0-5.678-2.647-5.678-6.765V0H.15v11.765c0 7.353 4.482 12.647 11.355 12.647 3.585 0 6.275-1.765 8.366-4.412 1.793 2.647 4.781 4.412 8.367 4.412 6.574 0 11.355-5.294 11.355-12.647V0h-5.678v12.647zm116.238 11.176V0h-5.678v23.823h5.678zM154.037 0v4.706h8.068v19.117h5.378V4.706h8.367V0h-21.813z" fill="#353543"/><path d="M57.223 25c7.769 0 13.147-5.294 13.147-12.647C70.37 5.294 64.992 0 57.223 0c-7.77 0-13.148 5.294-13.148 12.647C44.075 19.706 49.453 25 57.223 25zm0-5c-4.483 0-7.77-2.941-7.77-7.647C49.453 7.94 52.74 5 57.224 5c4.482 0 7.769 2.941 7.769 7.647 0 4.412-3.287 7.353-7.77 7.353zm23.307-8.235C80.53 7.94 83.219 5 86.805 5c3.884 0 6.275 2.941 6.275 6.765v12.647h5.677V12.647c0-7.353-4.78-12.353-11.952-12.353-6.873 0-11.953 5-11.953 12.353v11.765h5.678V11.765zm46.913 2.941c.299-1.47.299-2.353.299-3.235C127.742 5 122.961.294 116.088.294c-7.769 0-12.849 5-12.849 12.353 0 7.059 5.678 12.353 13.148 12.353 4.482 0 7.769-1.765 10.159-4.118l-3.585-3.235c-1.793 1.765-3.586 2.353-6.275 2.353-3.885 0-7.172-2.059-7.769-5.294h18.526zM116.088 5c3.287 0 5.677 1.765 6.275 5.294h-13.446C109.813 7.06 112.502 5 116.088 5z" fill="#D62C2C"/></g><defs><clipPath id="clip0_503_977"><path fill="#fff" d="M0 0h176v25H0z"/></clipPath></defs></svg>